<?xml version="1.0" encoding="UTF-8" standalone="no"?>
<svg
   width="24"
   height="24"
   viewBox="0 0 24 24"
   version="1.1"
   id="svg1"
   sodipodi:docname="cyrillicalt4.svg"
   inkscape:version="1.2.2 (b0a8486541, 2022-12-01)"
   xmlns:inkscape="http://www.inkscape.org/namespaces/inkscape"
   xmlns:sodipodi="http://sodipodi.sourceforge.net/DTD/sodipodi-0.dtd"
   xmlns="http://www.w3.org/2000/svg"
   xmlns:svg="http://www.w3.org/2000/svg"
   xmlns:rdf="http://www.w3.org/1999/02/22-rdf-syntax-ns#"
   xmlns:cc="http://creativecommons.org/ns#"
   xmlns:dc="http://purl.org/dc/elements/1.1/">
  <defs
     id="defs1">
    <inkscape:perspective
       sodipodi:type="inkscape:persp3d"
       inkscape:vp_x="0 : 12 : 1"
       inkscape:vp_y="0 : 1000 : 0"
       inkscape:vp_z="24 : 12 : 1"
       inkscape:persp3d-origin="12 : 8 : 1"
       id="perspective8708" />
  </defs>
  <sodipodi:namedview
     id="namedview1"
     pagecolor="#696969"
     bordercolor="#000000"
     borderopacity="0.89411765"
     inkscape:showpageshadow="2"
     inkscape:pageopacity="0.0"
     inkscape:pagecheckerboard="true"
     inkscape:deskcolor="#d1d1d1"
     inkscape:zoom="26.28217"
     inkscape:cx="11.110194"
     inkscape:cy="18.776988"
     inkscape:window-width="2194"
     inkscape:window-height="1206"
     inkscape:window-x="0"
     inkscape:window-y="0"
     inkscape:window-maximized="1"
     inkscape:current-layer="svg1"
     showgrid="false" />
  <title
     id="title1">alt</title>
  <metadata
     id="metadata1">
    <rdf:RDF>
      <cc:Work
         rdf:about="">
        <dc:title>alt</dc:title>
      </cc:Work>
    </rdf:RDF>
  </metadata>
  <path
     id="path12565"
     style="font-size:medium;font-family:'Anonymice Nerd Font Mono';-inkscape-font-specification:'Anonymice Nerd Font Mono';baseline-shift:baseline;display:inline;overflow:visible;vector-effect:none;fill:#ffffff;fill-opacity:1;stroke:none;stroke-width:0.900444;enable-background:accumulate;stop-color:#000000"
     d="m 6.352685,7.692 c -1.7569587,0 -3.1769364,0.3841396 -4.209851,1.2061037 -1.0434361,0.8223699 -1.5656339,2.0891183 -1.565633,3.6484193 -9e-7,0.696705 0.1200311,1.34039 0.3666132,1.92162 l 0.00181,0.0053 0.00181,0.0035 c 0.251398,0.563479 0.6002054,1.053333 1.0396221,1.457596 v 0.0018 l 0.00181,0.0018 c 0.4426947,0.399292 0.9627742,0.718212 1.5496933,0.956381 h 0.00181 v 0.0018 c 0.3749384,0.149973 0.8000759,0.195701 1.2114164,0.270974 L 0,24.00024 H 3.1542884 L 7.652826,17.399434 H 9.349518 L 9.35,24.00024 h 2.53 L 11.880388,7.692 Z m 0,2.2811474 H 9.349349 V 15.118 l -2.996664,1.29e-4 c -1.07096,4.6e-5 -1.8626009,-0.223554 -2.4157492,-0.62342 -0.5242852,-0.38634 -0.7934427,-0.97906 -0.7934427,-1.948186 0,-0.953249 0.2676994,-1.541012 0.7952136,-1.928703 l 0.00181,-0.0018 h 0.00181 C 4.4956527,10.202684 5.283895,9.9731048 6.352771,9.9731048 Z"
     inkscape:label="ya"
     sodipodi:nodetypes="scscccccccccccccccccscccscsccccc" />
  <path
     id="path10285-3"
     style="display:inline;vector-effect:none;fill:#ffffff;stroke:none;stroke-width:0.502089;stroke-opacity:0;stop-color:#000000"
     inkscape:label="alt"
     d="m 13.1455,15.117188 v 2.285156 h 2.336109 l 4.84375,6.640625 h 2.650391 1.02375 v -2.285157 h -2.353828 l -4.839844,-6.630859 v -0.0098 z m 5.945484,0 0.02148,0.03711 1.638672,2.248047 H 23.9995 v -2.285156 z"
     sodipodi:nodetypes="ccccccccccccccccc" />
</svg>
