<?xml version="1.0" encoding="UTF-8" standalone="no"?>
<svg
   height="24px"
   viewBox="0 -960 960 960"
   width="24px"
   fill="#e3e3e3"
   version="1.1"
   id="svg1"
   sodipodi:docname="emoji.svg"
   inkscape:version="1.4 (e7c3feb100, 2024-10-09)"
   xmlns:inkscape="http://www.inkscape.org/namespaces/inkscape"
   xmlns:sodipodi="http://sodipodi.sourceforge.net/DTD/sodipodi-0.dtd"
   xmlns="http://www.w3.org/2000/svg"
   xmlns:svg="http://www.w3.org/2000/svg">
  <defs
     id="defs1" />
  <sodipodi:namedview
     id="namedview1"
     pagecolor="#ffffff"
     bordercolor="#000000"
     borderopacity="0.25"
     inkscape:showpageshadow="2"
     inkscape:pageopacity="0.0"
     inkscape:pagecheckerboard="0"
     inkscape:deskcolor="#d1d1d1"
     inkscape:zoom="37.583333"
     inkscape:cx="12.013304"
     inkscape:cy="12"
     inkscape:window-width="1920"
     inkscape:window-height="1131"
     inkscape:window-x="0"
     inkscape:window-y="0"
     inkscape:window-maximized="1"
     inkscape:current-layer="svg1" />
  <path
     id="path1"
     d="M 480 -880 C 424.66667 -880 372.65105 -869.51562 323.98438 -848.51562 C 275.3177 -827.51562 233.03125 -798.96875 197.03125 -762.96875 C 161.03125 -726.96875 132.48438 -684.6823 111.48438 -636.01562 C 90.484375 -587.34895 80 -535.33333 80 -480 C 80 -424.66667 90.484375 -372.65105 111.48438 -323.98438 C 132.48438 -275.31771 161.03125 -233.03125 197.03125 -197.03125 C 233.03125 -161.03125 275.3177 -132.48438 323.98438 -111.48438 C 372.65105 -90.484375 424.66667 -80 480 -80 C 535.33333 -80 587.34896 -90.484375 636.01562 -111.48438 C 684.68229 -132.48438 726.96875 -161.03125 762.96875 -197.03125 C 798.96875 -233.03125 827.51562 -275.3177 848.51562 -323.98438 C 869.51562 -372.65105 880 -424.66667 880 -480 C 880 -535.33333 869.51562 -587.34896 848.51562 -636.01562 C 827.51562 -684.6823 798.96875 -726.96875 762.96875 -762.96875 C 726.96875 -798.96875 684.6823 -827.51562 636.01562 -848.51562 C 587.34896 -869.51562 535.33333 -880 480 -880 z M 480 -800 C 569.33333 -800 645.03125 -769.03125 707.03125 -707.03125 C 769.03125 -645.03125 800 -569.33333 800 -480 C 800 -390.66667 769.03125 -314.96875 707.03125 -252.96875 C 645.03125 -190.96875 569.33333 -160 480 -160 C 390.66667 -160 314.96875 -190.96875 252.96875 -252.96875 C 190.96875 -314.96875 160 -390.66667 160 -480 C 160 -569.33333 190.96875 -645.03125 252.96875 -707.03125 C 314.96875 -769.03125 390.66667 -800 480 -800 z M 340 -612.96875 C 312 -612.96875 288.66667 -602.83333 270 -582.5 C 251.33333 -562.16667 238.34895 -538 231.01562 -510 L 288.98438 -496.01562 C 292.3177 -510.68229 298.15105 -523.80208 306.48438 -535.46875 C 314.8177 -547.13542 326 -552.96875 340 -552.96875 C 354 -552.96875 365.1823 -547.13542 373.51562 -535.46875 C 381.84895 -523.80208 387.6823 -510.6823 391.01562 -496.01562 L 448.98438 -510 C 441.65105 -538 428.66667 -562.16667 410 -582.5 C 391.33333 -602.83333 368 -612.96875 340 -612.96875 z M 620 -612.96875 C 592 -612.96875 568.66667 -602.83333 550 -582.5 C 531.33333 -562.16667 518.34896 -538 511.01562 -510 L 568.98438 -496.01562 C 572.31771 -510.68229 578.15104 -523.80208 586.48438 -535.46875 C 594.8177 -547.13542 606 -552.96875 620 -552.96875 C 634 -552.96875 645.18229 -547.13542 653.51562 -535.46875 C 661.84895 -523.80208 667.68229 -510.6823 671.01562 -496.01562 L 728.98438 -510 C 721.65105 -538 708.66667 -562.16667 690 -582.5 C 671.33333 -602.83333 648 -612.96875 620 -612.96875 z M 382.03125 -370 L 337.96875 -330 C 359.30208 -306.66667 381.80208 -289.16667 405.46875 -277.5 C 429.13542 -265.83333 454 -260 480 -260 C 506 -260 531 -265.83333 555 -277.5 C 579 -289.16667 601.36458 -306.66667 622.03125 -330 L 577.96875 -370 C 563.30208 -354 547.68229 -341.84895 531.01562 -333.51562 C 514.34896 -325.1823 497.33333 -321.01562 480 -321.01562 C 462.66667 -321.01562 445.65105 -325.1823 428.98438 -333.51562 C 412.3177 -341.84895 396.69792 -354 382.03125 -370 z " />
</svg>
