<?xml version="1.0" encoding="UTF-8" standalone="no"?>
<svg
   height="24px"
   viewBox="0 -960 960 960"
   width="24px"
   fill="#e3e3e3"
   version="1.1"
   id="svg754"
   sodipodi:docname="ic_clear.svg"
   inkscape:version="1.2.2 (b0a8486541, 2022-12-01)"
   xmlns:inkscape="http://www.inkscape.org/namespaces/inkscape"
   xmlns:sodipodi="http://sodipodi.sourceforge.net/DTD/sodipodi-0.dtd"
   xmlns="http://www.w3.org/2000/svg"
   xmlns:svg="http://www.w3.org/2000/svg">
  <defs
     id="defs758" />
  <sodipodi:namedview
     id="namedview756"
     pagecolor="#ffffff"
     bordercolor="#666666"
     borderopacity="1.0"
     inkscape:showpageshadow="2"
     inkscape:pageopacity="0.0"
     inkscape:pagecheckerboard="0"
     inkscape:deskcolor="#d1d1d1"
     showgrid="false"
     inkscape:zoom="9.8333333"
     inkscape:cx="12"
     inkscape:cy="12.050847"
     inkscape:window-width="2194"
     inkscape:window-height="1178"
     inkscape:window-x="0"
     inkscape:window-y="0"
     inkscape:window-maximized="1"
     inkscape:current-layer="svg754" />
  <path
     d="m 280,-144 c -22,0 -40.83333,-7.83333 -56.5,-23.5 C 207.83333,-183.16667 200,-202 200,-224 v -520 h -40 v -80 h 200 v -40 h 240 v 40 h 200 v 80 h -40 v 520 c 0,22 -7.83333,40.83333 -23.5,56.5 C 720.83333,-151.83333 702,-144 680,-144 Z M 680,-744 H 280 v 520 h 400 z m -400,0 v 520 z"
     id="path752"
     style="fill:#000000"
     sodipodi:nodetypes="sssccccccccccsssscccccccc" />
  <path
     d="M 479.99999,-423 395,-339 l -56,-56 84,-85 -84,-85 56,-56 85,84 85,-84 56,56 -84,85 84,85 -56,56 z"
     style="fill:#000000"
     id="path981" />
</svg>
