<?xml version="1.0" encoding="UTF-8" standalone="no"?>
<svg
   height="24px"
   viewBox="0 -960 960 960"
   width="24px"
   fill="#e3e3e3"
   version="1.1"
   id="svg1"
   sodipodi:docname="ic_emoji_btn_close.svg"
   inkscape:version="1.4.2 (ebf0e940d0, 2025-05-08)"
   xmlns:inkscape="http://www.inkscape.org/namespaces/inkscape"
   xmlns:sodipodi="http://sodipodi.sourceforge.net/DTD/sodipodi-0.dtd"
   xmlns="http://www.w3.org/2000/svg"
   xmlns:svg="http://www.w3.org/2000/svg">
  <defs
     id="defs1" />
  <sodipodi:namedview
     id="namedview1"
     pagecolor="#ffffff"
     bordercolor="#000000"
     borderopacity="0.25"
     inkscape:showpageshadow="2"
     inkscape:pageopacity="0.0"
     inkscape:pagecheckerboard="0"
     inkscape:deskcolor="#d1d1d1"
     inkscape:zoom="9.3958333"
     inkscape:cx="0.15964523"
     inkscape:cy="22.137472"
     inkscape:window-width="2021"
     inkscape:window-height="1203"
     inkscape:window-x="0"
     inkscape:window-y="0"
     inkscape:window-maximized="1"
     inkscape:current-layer="svg1"
     showgrid="false" />
  <path
     id="path1-5"
     style="fill:#000000;stroke-width:0.643459"
     d="M 112.03125 -847.96875 L 55 -791.01562 L 250.15625 -595.85938 C 247.60258 -590.81336 245.16858 -585.66969 242.89062 -580.39062 C 229.37798 -549.07561 222.57813 -515.60473 222.57812 -480 C 222.57812 -444.39527 229.37798 -410.92437 242.89062 -379.60938 C 256.40327 -348.29435 274.72611 -321.05516 297.89062 -297.89062 C 321.05514 -274.72609 348.29437 -256.40328 379.60938 -242.89062 C 410.92439 -229.37799 444.39527 -222.57812 480 -222.57812 C 515.60473 -222.57812 549.07564 -229.37799 580.39062 -242.89062 C 585.6697 -245.16859 590.81336 -247.60258 595.85938 -250.15625 L 791.01562 -55 L 847.96875 -111.95312 L 847.96875 -112.03125 L 662.10938 -297.89062 L 626.09375 -333.90625 L 459.84375 -500.15625 L 394.60938 -565.39062 L 333.90625 -626.09375 L 297.89062 -662.10938 L 112.03125 -847.96875 z M 480 -737.42188 C 444.39527 -737.42188 410.92438 -730.62202 379.60938 -717.10938 C 374.33267 -714.83244 369.18588 -712.39399 364.14062 -709.84375 L 402.26562 -671.71875 C 426.09742 -681.18315 452.00312 -685.9375 480 -685.9375 C 537.48233 -685.9375 586.19929 -665.98821 626.09375 -626.09375 C 665.9882 -586.1993 685.9375 -537.48233 685.9375 -480 C 685.9375 -452.00107 681.18438 -426.09871 671.71875 -402.26562 L 709.84375 -364.14062 C 712.39506 -369.1877 714.83158 -374.33068 717.10938 -379.60938 C 730.62201 -410.92438 737.42188 -444.39527 737.42188 -480 C 737.42188 -515.60473 730.62201 -549.07562 717.10938 -580.39062 C 703.59672 -611.70565 685.27391 -638.94485 662.10938 -662.10938 C 638.94484 -685.2739 611.70565 -703.59673 580.39062 -717.10938 C 549.07562 -730.62202 515.60473 -737.42188 480 -737.42188 z M 570.07812 -565.54688 C 552.77744 -565.54688 538.32245 -559.56302 526.5625 -547.5 L 526.5625 -547.42188 L 553.125 -520.85938 C 557.78361 -524.92799 563.44377 -526.95312 570.07812 -526.95312 C 579.08655 -526.95312 586.27847 -523.21015 591.64062 -515.70312 C 597.00278 -508.19611 600.74577 -499.74991 602.89062 -490.3125 L 640.23438 -499.29688 C 635.51567 -517.31372 627.16748 -532.85384 615.15625 -545.9375 C 603.14501 -559.02117 588.09497 -565.54688 570.07812 -565.54688 z M 288.28125 -557.73438 L 326.875 -519.14062 C 323.96073 -512.90999 321.59076 -506.26553 319.76562 -499.29688 L 355.23438 -490.78125 L 467.10938 -378.90625 C 460.39177 -380.18051 453.74195 -382.50403 447.1875 -385.78125 C 436.46318 -391.1434 426.39052 -398.92341 416.95312 -409.21875 L 388.59375 -383.51562 C 402.32087 -368.50158 416.80272 -357.19452 432.03125 -349.6875 C 447.25978 -342.18047 463.27007 -338.4375 480 -338.4375 C 488.40247 -338.4375 496.60965 -339.35638 504.6875 -341.25 L 504.76562 -341.25 L 557.73438 -288.28125 C 533.9089 -278.82636 507.99102 -274.0625 480 -274.0625 C 422.51767 -274.0625 373.8007 -294.0118 333.90625 -333.90625 C 294.01179 -373.80071 274.0625 -422.51767 274.0625 -480 C 274.0625 -507.99102 278.82635 -533.9089 288.28125 -557.73438 z " />
</svg>
