<?xml version="1.0" encoding="UTF-8" standalone="no"?>
<svg
   height="24px"
   viewBox="0 -960 960 960"
   width="24px"
   fill="#e3e3e3"
   version="1.1"
   id="svg1"
   sodipodi:docname="ic_emoji_btn_down.svg"
   inkscape:version="1.4.2 (ebf0e940d0, 2025-05-08)"
   xmlns:inkscape="http://www.inkscape.org/namespaces/inkscape"
   xmlns:sodipodi="http://sodipodi.sourceforge.net/DTD/sodipodi-0.dtd"
   xmlns="http://www.w3.org/2000/svg"
   xmlns:svg="http://www.w3.org/2000/svg">
  <defs
     id="defs1" />
  <sodipodi:namedview
     id="namedview1"
     pagecolor="#ffffff"
     bordercolor="#000000"
     borderopacity="0.25"
     inkscape:showpageshadow="2"
     inkscape:pageopacity="0.0"
     inkscape:pagecheckerboard="0"
     inkscape:deskcolor="#d1d1d1"
     inkscape:zoom="9.3958333"
     inkscape:cx="0.15964523"
     inkscape:cy="22.137472"
     inkscape:window-width="2021"
     inkscape:window-height="1203"
     inkscape:window-x="0"
     inkscape:window-y="0"
     inkscape:window-maximized="1"
     inkscape:current-layer="svg1"
     showgrid="false" />
  <path
     id="path1-5"
     d="m 480,-737.38359 c -35.60473,0 -69.07464,6.74627 -100.38965,20.25891 -31.31501,13.51264 -58.52461,31.88138 -81.68913,55.0459 -23.16452,23.16452 -41.53326,50.37412 -55.0459,81.68913 -13.51265,31.31501 -20.25891,64.78492 -20.25891,100.38965 0,35.60473 6.74626,69.07465 20.25891,100.38965 13.51264,31.31501 31.88138,58.52461 55.0459,81.68913 23.16452,23.16453 50.37412,41.53327 81.68913,55.04591 31.31501,13.51264 64.78492,20.2589 100.38965,20.2589 35.60473,0 69.07465,-6.74626 100.38965,-20.2589 31.31501,-13.51264 58.52461,-31.88138 81.68913,-55.04591 23.16453,-23.16452 41.53327,-50.37411 55.04591,-81.68913 13.51263,-31.315 20.2589,-64.78492 20.2589,-100.38965 0,-35.60473 -6.74627,-69.07465 -20.2589,-100.38965 -13.51264,-31.31501 -31.88138,-58.52461 -55.04591,-81.68913 -23.16452,-23.16452 -50.37411,-41.53326 -81.68913,-55.0459 -31.315,-13.51264 -64.78492,-20.25891 -100.38965,-20.25891 z m 0,51.47672 c 57.48233,0 106.19084,19.92712 146.0853,59.82158 39.89445,39.89445 59.82157,88.60296 59.82157,146.08529 0,57.48233 -19.92712,106.19084 -59.82157,146.0853 -39.89446,39.89445 -88.60297,59.82157 -146.0853,59.82157 -57.48233,0 -106.19084,-19.92712 -146.08529,-59.82157 -39.89446,-39.89446 -59.82158,-88.60297 -59.82158,-146.0853 0,-57.48233 19.92712,-106.19084 59.82158,-146.08529 39.89445,-39.89446 88.60296,-59.82158 146.08529,-59.82158 z m -90.08426,120.34694 c -18.01685,0 -33.03089,6.52172 -45.04212,19.60539 -12.01124,13.08366 -20.36616,28.63392 -25.08485,46.65077 l 37.30052,8.99838 c 2.14485,-9.4374 5.89837,-17.87945 11.26053,-25.38647 5.36215,-7.50703 12.5575,-11.26054 21.56592,-11.26054 9.00843,0 16.20378,3.75351 21.56593,11.26054 5.36216,7.50702 9.11568,15.94906 11.26053,25.38647 l 37.30052,-8.99838 c -4.71869,-18.01685 -13.07361,-33.56711 -25.08485,-46.65077 -12.01123,-13.08367 -27.02527,-19.60539 -45.04213,-19.60539 z m 180.16852,0 c -18.01685,0 -33.03089,6.52172 -45.04213,19.60539 -12.01124,13.08366 -20.36615,28.63392 -25.08485,46.65077 l 37.30052,8.99838 c 2.14486,-9.4374 5.89837,-17.87945 11.26053,-25.38647 5.36215,-7.50703 12.5575,-11.26054 21.56593,-11.26054 9.00842,0 16.20377,3.75351 21.56593,11.26054 5.36215,7.50702 9.11567,15.94906 11.26053,25.38647 l 37.30052,-8.99838 c -4.7187,-18.01685 -13.07362,-33.56711 -25.08485,-46.65077 -12.01124,-13.08367 -27.02528,-19.60539 -45.04213,-19.60539 z m -153.12313,156.34042 -28.35241,25.73836 c 13.72712,15.01404 28.20495,26.27457 43.43348,33.78159 15.22853,7.50703 31.22787,11.26054 47.9578,11.26054 16.72993,0 32.81641,-3.75351 48.25942,-11.26054 15.44302,-7.50702 29.83371,-18.76755 43.13186,-33.78159 l -28.35241,-25.73836 c -9.4374,10.29534 -19.48809,18.11405 -30.21241,23.4762 -10.72431,5.36215 -21.67317,8.04324 -32.82646,8.04324 -11.15329,0 -22.10214,-2.68109 -32.82646,-8.04324 -10.72432,-5.36215 -20.77501,-13.18086 -30.21241,-23.4762 z"
     style="fill:#000000;stroke-width:0.643459" />
  <path
     d="M 720,-167.51376 480,-0.00133 240,-167.51376 296,-206.6 480,-78.1738 664,-206.6 Z"
     id="path1-2"
     style="fill:#000000;stroke-width:0.835446" />
</svg>
