<?xml version="1.0" encoding="UTF-8" standalone="no"?>
<svg
   width="64"
   height="64"
   version="1"
   id="svg35"
   sodipodi:docname="ic_key_emoji0.svg"
   inkscape:version="1.2.2 (b0a8486541, 2022-12-01)"
   inkscape:export-filename="/home/ricky/Downloads/pycapcon.png"
   inkscape:export-xdpi="205.88"
   inkscape:export-ydpi="205.88"
   xmlns:inkscape="http://www.inkscape.org/namespaces/inkscape"
   xmlns:sodipodi="http://sodipodi.sourceforge.net/DTD/sodipodi-0.dtd"
   xmlns:xlink="http://www.w3.org/1999/xlink"
   xmlns="http://www.w3.org/2000/svg"
   xmlns:svg="http://www.w3.org/2000/svg"
   xmlns:rdf="http://www.w3.org/1999/02/22-rdf-syntax-ns#"
   xmlns:cc="http://creativecommons.org/ns#"
   xmlns:dc="http://purl.org/dc/elements/1.1/">
  <metadata
     id="metadata39">
    <rdf:RDF>
      <cc:Work
         rdf:about="">
        <dc:format>image/svg+xml</dc:format>
        <dc:type
           rdf:resource="http://purl.org/dc/dcmitype/StillImage" />
      </cc:Work>
    </rdf:RDF>
  </metadata>
  <sodipodi:namedview
     pagecolor="#ffffff"
     bordercolor="#666666"
     borderopacity="1"
     objecttolerance="10"
     gridtolerance="10"
     guidetolerance="10"
     inkscape:pageopacity="0"
     inkscape:pageshadow="2"
     inkscape:window-width="2194"
     inkscape:window-height="1234"
     id="namedview37"
     showgrid="false"
     inkscape:zoom="5.41047"
     inkscape:cx="37.704673"
     inkscape:cy="56.464595"
     inkscape:window-x="0"
     inkscape:window-y="0"
     inkscape:window-maximized="0"
     inkscape:current-layer="svg35"
     inkscape:showpageshadow="2"
     inkscape:pagecheckerboard="0"
     inkscape:deskcolor="#d1d1d1" />
  <defs
     id="defs7">
    <linearGradient
       id="linearGradient8505"
       x1="168"
       x2="160"
       y1="266"
       y2="270"
       gradientTransform="matrix(0.79874,0,0,0.79956,-95.82,-175.89)"
       gradientUnits="userSpaceOnUse">
      <stop
         offset="0"
         id="stop2" />
      <stop
         offset="1"
         stop-opacity="0"
         id="stop4" />
    </linearGradient>
    <linearGradient
       id="linearGradient8505-3"
       x1="168"
       x2="160"
       y1="266"
       y2="270"
       gradientTransform="matrix(0.70100521,0,0,0.70172487,-83.581087,-144.71721)"
       gradientUnits="userSpaceOnUse">
      <stop
         offset="0"
         id="stop2-6" />
      <stop
         offset="1"
         stop-opacity="0"
         id="stop4-7" />
    </linearGradient>
    <linearGradient
       id="linearGradient5"
       inkscape:collect="always">
      <stop
         style="stop-color:#b6b6b6;stop-opacity:1;"
         offset="0.50119114"
         id="stop5" />
      <stop
         style="stop-color:#474747;stop-opacity:1;"
         offset="0.50119114"
         id="stop6" />
    </linearGradient>
    <linearGradient
       inkscape:collect="always"
       xlink:href="#linearGradient5"
       id="linearGradient2"
       gradientUnits="userSpaceOnUse"
       gradientTransform="matrix(6.0926615,0,0,6.0926615,155.76211,194.58248)"
       x1="-24.214283"
       y1="-30.585888"
       x2="-16.412346"
       y2="-22.783947" />
  </defs>
  <rect
     style="display:inline;fill:#ffffff;fill-opacity:1;stroke:url(#linearGradient2);stroke-width:3.224;stroke-linecap:round;stroke-linejoin:round;stroke-miterlimit:14;stroke-dasharray:none;stroke-opacity:1"
     id="rect5-3-3-9-5"
     width="60.775959"
     height="60.775959"
     x="1.6120197"
     y="1.6120197"
     sodipodi:type="rect"
     ry="11.971022"
     inkscape:label="key"
     rx="11.971022" />
  <path
     d="m 41.207534,45.134563 q 1.200092,-2.098086 1.200092,-4.579968 0,-2.481881 -1.200092,-4.579968 -1.187592,-2.098085 -3.237749,-3.31344 -2.050157,-1.228148 -4.475344,-1.228148 -2.425187,0 -4.475345,1.228148 -2.050157,1.215355 -3.250251,3.31344 -1.18759,2.098087 -1.18759,4.579968 0,2.481882 1.18759,4.579968 1.200094,2.098086 3.250251,3.31344 2.050158,1.228148 4.475345,1.228148 2.425187,0 4.475344,-1.228148 2.050157,-1.215354 3.237749,-3.31344 z M 23.381162,44.917078 q -0.862566,-2.085292 -0.862566,-4.362483 0,-2.277191 0.862566,-4.349689 0.875067,-2.085294 2.350181,-3.594892 1.475113,-1.509598 3.500269,-2.392329 2.037657,-0.895525 4.262829,-0.895525 2.225171,0 4.250327,0.895525 2.037657,0.882731 3.500269,2.392329 1.475113,1.509598 2.33768,3.594892 0.875068,2.072498 0.875068,4.349689 0,2.277191 -0.875068,4.362483 -0.862567,2.0725 -2.33768,3.582098 -1.462612,1.509599 -3.500269,2.392329 -2.025156,0.895525 -4.250327,0.895525 -2.225172,0 -4.262829,-0.895525 -2.025156,-0.88273 -3.500269,-2.392329 -1.475114,-1.509598 -2.350181,-3.582098 z m 6.750519,-1.63753 q 1.350104,1.484012 3.36276,1.484012 2.012655,0 3.362759,-1.484012 0.287521,-0.31983 0.712554,-0.332623 0.425033,-0.02558 0.737557,0.268657 0.312524,0.294244 0.325025,0.729213 0.025,0.434969 -0.26252,0.754799 -0.825063,0.92111 -2.062659,1.547978 -1.237595,0.626867 -2.812716,0.626867 -1.575121,0 -2.812717,-0.626867 -1.225095,-0.626868 -2.050158,-1.547978 -0.287522,-0.31983 -0.275021,-0.754799 0.01251,-0.434969 0.325025,-0.729213 0.312524,-0.294243 0.737557,-0.268657 0.437533,0.0128 0.725056,0.332623 z m 1.712632,-3.914721 -0.0125,-0.0128 q -0.01251,-0.0128 -0.01251,-0.02558 0,-0.0128 -0.0125,-0.0128 -0.0125,-0.02558 -0.0625,-0.07676 -0.0375,-0.05117 -0.0625,-0.07676 -0.175013,-0.191899 -0.437533,-0.447762 -0.662552,-0.614075 -1.187592,-0.614075 -0.52504,0 -1.187591,0.614075 -0.262521,0.255863 -0.437534,0.447762 -0.07501,0.08955 -0.112509,0.153518 l -0.01251,0.0128 q -0.025,0.0128 -0.025,0.02558 v 0.0128 0 q -0.137511,0.204692 -0.387531,0.115139 -0.237517,-0.08955 -0.237517,-0.332623 0,-1.176975 0.712554,-2.136466 0.750058,-1.023457 1.68763,-1.023457 0.950073,0 1.700131,1.023457 0.700054,0.946697 0.700054,2.136466 0,0.24307 -0.225017,0.332623 -0.25002,0.08955 -0.387531,-0.115139 z m 6.863029,0 -0.0125,-0.0128 q 0,-0.0128 -0.0125,-0.02558 l -0.0125,-0.0128 q -0.01251,-0.02558 -0.0625,-0.07676 -0.0375,-0.05117 -0.0625,-0.07676 -0.175013,-0.191899 -0.437533,-0.447762 -0.662551,-0.614075 -1.187591,-0.614075 -0.525041,0 -1.187592,0.614075 -0.26252,0.255863 -0.437533,0.447762 -0.025,0.02558 -0.07501,0.07676 -0.0375,0.05117 -0.05,0.07676 -0.025,0.02558 -0.025,0.03838 l -0.01251,0.0128 v 0 q -0.13751,0.204692 -0.375028,0.115139 -0.237518,-0.08955 -0.237518,-0.332623 0,-1.176975 0.712554,-2.136466 0.750058,-1.023457 1.68763,-1.023457 0.937573,0 1.68763,1.023457 0.712555,0.959491 0.712555,2.136466 0,0.24307 -0.237519,0.332623 -0.237517,0.08955 -0.375028,-0.115139 z"
     id="path5986"
     style="font-size:25.8995px;line-height:1;font-family:'Myriad Pro';-inkscape-font-specification:'Myriad Pro';text-align:center;text-anchor:middle;stroke-width:1.69192;stroke-linecap:round;stroke-linejoin:round;stroke-miterlimit:0" />
  <path
     d="m 19.725804,12.880833 c -3.220091,0 -5.041984,2.926808 -5.041984,7.327859 0.02118,4.292651 1.715969,7.241139 4.872505,7.241139 3.30483,0 5.041984,-2.840087 5.041984,-7.392899 0,-4.140891 -1.546491,-7.176099 -4.872505,-7.176099 z m -0.06355,2.037926 c 1.567676,0 2.309144,1.929525 2.309144,5.203213 0,3.382089 -0.783838,5.289934 -2.330329,5.289934 -1.419381,0 -2.330328,-1.777765 -2.330328,-5.224894 0,-3.512169 0.974501,-5.268253 2.351513,-5.268253 z"
     id="path5983"
     style="font-weight:600;font-size:21.431px;line-height:1;font-family:'Myriad Pro';-inkscape-font-specification:'Myriad Pro Semi-Bold';text-align:center;letter-spacing:-2.70707px;text-anchor:middle;stroke-width:1.69192;stroke-linecap:round;stroke-linejoin:round;stroke-miterlimit:0" />
</svg>
