<?xml version="1.0" encoding="UTF-8" standalone="no"?>
<svg
   width="64"
   height="64"
   version="1"
   id="svg35"
   sodipodi:docname="ic_key_sym.svg"
   inkscape:version="1.2.2 (b0a8486541, 2022-12-01)"
   inkscape:export-filename="/home/ricky/Downloads/pycapcon.png"
   inkscape:export-xdpi="205.88"
   inkscape:export-ydpi="205.88"
   xmlns:inkscape="http://www.inkscape.org/namespaces/inkscape"
   xmlns:sodipodi="http://sodipodi.sourceforge.net/DTD/sodipodi-0.dtd"
   xmlns:xlink="http://www.w3.org/1999/xlink"
   xmlns="http://www.w3.org/2000/svg"
   xmlns:svg="http://www.w3.org/2000/svg"
   xmlns:rdf="http://www.w3.org/1999/02/22-rdf-syntax-ns#"
   xmlns:cc="http://creativecommons.org/ns#"
   xmlns:dc="http://purl.org/dc/elements/1.1/">
  <metadata
     id="metadata39">
    <rdf:RDF>
      <cc:Work
         rdf:about="">
        <dc:format>image/svg+xml</dc:format>
        <dc:type
           rdf:resource="http://purl.org/dc/dcmitype/StillImage" />
      </cc:Work>
    </rdf:RDF>
  </metadata>
  <sodipodi:namedview
     pagecolor="#ffffff"
     bordercolor="#666666"
     borderopacity="1"
     objecttolerance="10"
     gridtolerance="10"
     guidetolerance="10"
     inkscape:pageopacity="0"
     inkscape:pageshadow="2"
     inkscape:window-width="2194"
     inkscape:window-height="1234"
     id="namedview37"
     showgrid="false"
     inkscape:zoom="5.41047"
     inkscape:cx="37.704673"
     inkscape:cy="56.464595"
     inkscape:window-x="0"
     inkscape:window-y="0"
     inkscape:window-maximized="0"
     inkscape:current-layer="svg35"
     inkscape:showpageshadow="2"
     inkscape:pagecheckerboard="0"
     inkscape:deskcolor="#d1d1d1" />
  <defs
     id="defs7">
    <linearGradient
       id="linearGradient8505"
       x1="168"
       x2="160"
       y1="266"
       y2="270"
       gradientTransform="matrix(0.79874,0,0,0.79956,-95.82,-175.89)"
       gradientUnits="userSpaceOnUse">
      <stop
         offset="0"
         id="stop2" />
      <stop
         offset="1"
         stop-opacity="0"
         id="stop4" />
    </linearGradient>
    <linearGradient
       id="linearGradient8505-3"
       x1="168"
       x2="160"
       y1="266"
       y2="270"
       gradientTransform="matrix(0.70100521,0,0,0.70172487,-83.581087,-144.71721)"
       gradientUnits="userSpaceOnUse">
      <stop
         offset="0"
         id="stop2-6" />
      <stop
         offset="1"
         stop-opacity="0"
         id="stop4-7" />
    </linearGradient>
    <linearGradient
       id="linearGradient5"
       inkscape:collect="always">
      <stop
         style="stop-color:#b6b6b6;stop-opacity:1;"
         offset="0.50119114"
         id="stop5" />
      <stop
         style="stop-color:#474747;stop-opacity:1;"
         offset="0.50119114"
         id="stop6" />
    </linearGradient>
    <linearGradient
       inkscape:collect="always"
       xlink:href="#linearGradient5"
       id="linearGradient2"
       gradientUnits="userSpaceOnUse"
       gradientTransform="matrix(6.0926615,0,0,6.0926615,155.76211,194.58248)"
       x1="-24.214283"
       y1="-30.585888"
       x2="-16.412346"
       y2="-22.783947" />
  </defs>
  <rect
     style="display:inline;fill:#ffffff;fill-opacity:1;stroke:url(#linearGradient2);stroke-width:3.224;stroke-linecap:round;stroke-linejoin:round;stroke-miterlimit:14;stroke-dasharray:none;stroke-opacity:1"
     id="rect5-3-3-9-5"
     width="60.775959"
     height="60.775959"
     x="1.6120197"
     y="1.6120197"
     sodipodi:type="rect"
     ry="11.971022"
     inkscape:label="key"
     rx="11.971022" />
  <path
     id="path1-0"
     style="fill:#000000;stroke-width:0.0466264"
     d="m 35.081475,14.129552 c -1.901454,1.832341 -3.763154,3.707716 -5.62815,5.577247 l 1.643362,1.643364 c 0.943274,-0.938378 1.884832,-1.876025 2.821346,-2.821349 3.8e-4,1.761615 0.0052,4.123997 0.0074,6.202603 h 2.319612 c 7.86e-4,-2.075346 0.0018,-4.431862 0,-6.195331 0.932664,0.945519 1.86938,1.880215 2.806808,2.821349 l 1.657969,-1.657907 C 38.842283,17.83296 36.991577,15.952635 35.081495,14.129552 Z m -8.144094,8.085921 c -1.866568,1.867366 -3.746894,3.71807 -5.569978,5.628152 1.832334,1.901452 3.707706,3.755894 5.577246,5.620882 l 1.643368,-1.643364 c -0.939946,-0.944848 -1.888346,-1.882862 -2.835894,-2.821348 1.271778,7.42e-4 3.559842,-3.8e-4 5.540896,0 v -2.319612 c -2.046962,-1.9e-4 -4.253786,-6.12e-4 -5.526352,0 0.945276,-0.932 1.887488,-1.86938 2.828622,-2.806806 z m 16.128215,0.0146 -1.64336,1.643358 c 0.933278,0.938154 1.873308,1.869594 2.814076,2.799534 -1.314972,5.6e-5 -3.470548,-2e-5 -5.519077,0 v 2.326884 c 1.998175,-3.12e-4 4.226441,10e-4 5.540893,0 -0.952476,0.936974 -1.904182,1.871554 -2.850436,2.81408 l 1.657904,1.657904 c 1.866584,-1.86737 3.754168,-3.710796 5.577254,-5.620882 -1.832342,-1.901454 -3.707706,-3.755896 -5.577254,-5.620878 z m -3.122577,12.914208 c -1.657154,2.006362 -3.320784,3.998046 -4.951898,6.035359 -1.644184,-2.020821 -3.302078,-4.024091 -4.96645,-6.020815 l -2.050564,2.472314 5.60634,6.762509 -0.0074,7.97685 2.83589,-0.02208 V 44.39338 l 5.606337,-6.755235 z m -18.716878,0.0146 c -1.818108,0.0058 -3.23551,0.52492 -4.246564,1.548836 -1.017131,1.030084 -1.527016,2.181716 -1.527016,4.021145 0,1.47155 0.339911,1.875534 1.018014,2.850434 0.678089,0.956498 1.710666,1.229292 3.097663,1.505204 l 1.686991,0.327214 c 0.785966,0.14716 1.341544,0.399484 1.665176,0.748968 0.339054,0.34948 0.509006,0.250166 0.509006,0.930752 0,0.827744 -0.222052,0.97648 -0.668978,1.417948 -0.431512,0.441462 -1.059266,0.458102 -1.876054,0.458106 v 0.02891 h -5.431818 v 3.36671 h 5.708136 v -0.04364 c 1.139526,-0.04924 2.13034,-0.30701 2.959508,-0.785322 0.940076,-0.53343 1.63913,-1.265162 2.101466,-2.203268 0.477746,-0.956498 0.71988,-1.360084 0.719884,-2.574118 0,-1.489948 -0.352718,-2.07615 -1.061646,-2.995864 -0.70891,-0.919724 -1.715,-1.178392 -3.024948,-1.454304 l -1.694264,-0.34903 c -0.819488,-0.1692 -2.217811,-0.714004 -2.217811,-1.417946 0,-1.508715 0.763255,-1.996385 2.283255,-2.014211 h 5.708138 v -3.36671 z m 21.821813,0 v 17.211673 l 2.835892,-0.02208 V 41.724792 l 2.901334,3.497596 2.959508,-3.57031 v 10.71821 l 2.828616,-0.02208 V 35.158373 H 53.06083 l -4.27565,5.155505 -4.282922,-5.155505 z m -28.169843,14.092193 -0.07272,0.10178 c 0.0237,0.03538 0.04847,0.06714 0.07272,0.10178 z"
     inkscape:label="symarrow" />
</svg>
