<?xml version="1.0" encoding="UTF-8" standalone="no"?>
<svg
   height="24px"
   viewBox="0 -960 960 960"
   width="24px"
   fill="#e3e3e3"
   version="1.1"
   id="svg1"
   sodipodi:docname="ic_menu_keyboard.svg"
   inkscape:version="1.4.2 (ebf0e940d0, 2025-05-08)"
   xmlns:inkscape="http://www.inkscape.org/namespaces/inkscape"
   xmlns:sodipodi="http://sodipodi.sourceforge.net/DTD/sodipodi-0.dtd"
   xmlns="http://www.w3.org/2000/svg"
   xmlns:svg="http://www.w3.org/2000/svg">
  <defs
     id="defs1" />
  <sodipodi:namedview
     id="namedview1"
     pagecolor="#ffffff"
     bordercolor="#000000"
     borderopacity="0.25"
     inkscape:showpageshadow="2"
     inkscape:pageopacity="0.0"
     inkscape:pagecheckerboard="0"
     inkscape:deskcolor="#d1d1d1"
     inkscape:zoom="13.493954"
     inkscape:cx="1.8897352"
     inkscape:cy="19.49021"
     inkscape:window-width="2021"
     inkscape:window-height="1167"
     inkscape:window-x="0"
     inkscape:window-y="0"
     inkscape:window-maximized="1"
     inkscape:current-layer="svg1"
     showgrid="false" />
  <path
     d="m 160,-750 c -22,0 -40.83333,7.83333 -56.5,23.5 C 87.833333,-710.83333 80,-692 80,-670 v 380 c 0,22 7.833333,40.83333 23.5,56.5 15.66667,15.66667 34.5,23.5 56.5,23.5 h 640 c 22,0 40.83333,-7.83333 56.5,-23.5 15.66667,-15.66667 23.5,-34.5 23.5,-56.5 v -380 c 0,-22 -7.83333,-40.83333 -23.5,-56.5 C 840.83333,-742.16667 822,-750 800,-750 Z m 0,70 h 640 v 400 H 160 Z m 0,0 v 400 z"
     id="path1"
     sodipodi:nodetypes="ssssssssssssscccccccc" />
  <path
     d="M 640,-320 H 320 v -80 h 320 z m 120,-120 h -80 v -80 h 80 z m -120,0 h -80 v -80 h 80 z m -120,0 h -80 v -80 h 80 z m -120,0 h -80 v -80 h 80 z m -120,0 h -80 v -80 h 80 z m 480,-120 h -80 v -80 h 80 z m -120,0 h -80 v -80 h 80 z m -120,0 h -80 v -80 h 80 z m -120,0 h -80 v -80 h 80 z m -120,0 h -80 v -80 h 80 z"
     id="path1-5" />
</svg>
