<?xml version="1.0" encoding="UTF-8" standalone="no"?>
<svg
   height="24px"
   viewBox="0 -960 960 960"
   width="24px"
   fill="#e3e3e3"
   version="1.1"
   id="svg1"
   sodipodi:docname="ic_menu_settings_search.svg"
   inkscape:version="1.4.2 (ebf0e940d0, 2025-05-08)"
   xmlns:inkscape="http://www.inkscape.org/namespaces/inkscape"
   xmlns:sodipodi="http://sodipodi.sourceforge.net/DTD/sodipodi-0.dtd"
   xmlns="http://www.w3.org/2000/svg"
   xmlns:svg="http://www.w3.org/2000/svg">
  <defs
     id="defs1" />
  <sodipodi:namedview
     id="namedview1"
     pagecolor="#ffffff"
     bordercolor="#000000"
     borderopacity="0.25"
     inkscape:showpageshadow="2"
     inkscape:pageopacity="0.0"
     inkscape:pagecheckerboard="0"
     inkscape:deskcolor="#d1d1d1"
     inkscape:zoom="38.166667"
     inkscape:cx="12"
     inkscape:cy="12.026201"
     inkscape:window-width="2021"
     inkscape:window-height="1167"
     inkscape:window-x="0"
     inkscape:window-y="0"
     inkscape:window-maximized="1"
     inkscape:current-layer="svg1" />
  <path
     d="M 892.29219,-68.916877 582.77078,-378.43828 q -14.50882,-15.71789 -30.83123,-32.04031 -16.32242,-16.32241 -32.04031,-30.83123 45.94459,-29.01763 73.75315,-77.38035 27.80857,-48.36272 27.80857,-106.39799 0,-90.6801 -63.47607,-154.15617 -63.47607,-63.47607 -154.15617,-63.47607 -90.68011,0 -154.15618,63.47607 -63.47607,63.47607 -63.47607,154.15617 0,7.25441 0.60454,13.90428 0.60453,6.64988 1.8136,13.90429 -21.76322,2.41813 -47.75819,9.67254 -25.99496,7.25441 -46.549115,16.92695 -2.418136,-13.29975 -3.627204,-26.59949 -1.209068,-13.29975 -1.209068,-27.80857 0,-131.78841 91.284637,-223.07305 91.28463,-91.28463 223.07305,-91.28463 131.78841,0 223.07304,91.28463 91.28464,91.28464 91.28464,223.07305 0,51.98993 -16.32242,98.53905 Q 685.54156,-480 656.52393,-441.30982 L 960,-136.62468 Z m -706.09572,48.362721 -14.50881,-72.544078 q -14.50882,-6.04534 -27.20403,-12.695216 -12.69522,-6.64987 -25.99497,-16.32242 L 48.36272,-100.35264 0,-182.56927 55.617128,-230.93199 q -2.418136,-15.71788 -2.418136,-31.43576 0,-15.71789 2.418136,-31.43577 L 0,-342.16624 l 48.36272,-82.21663 70.12594,21.76323 q 13.29975,-9.67255 25.99497,-16.32242 12.69521,-6.64988 27.20403,-12.69522 l 14.50881,-72.54408 h 96.72544 l 14.50882,72.54408 q 14.50882,6.04534 27.20403,12.69522 12.69521,6.64987 25.99496,16.32242 l 70.12595,-21.76323 48.36272,82.21663 -55.61713,48.36272 q 2.41814,15.71788 2.41814,31.43577 0,15.71788 -2.41814,31.43576 l 55.61713,48.36272 -48.36272,82.21663 -70.12595,-21.76323 q -13.29975,9.67255 -25.99496,16.32242 -12.69521,6.649876 -27.20403,12.695216 l -14.50882,72.544078 z m 48.36272,-145.088154 q 39.89925,0 68.31235,-28.4131 28.41309,-28.4131 28.41309,-68.31234 0,-39.89925 -28.41309,-68.31235 -28.4131,-28.4131 -68.31235,-28.4131 -39.89924,0 -68.31234,28.4131 -28.4131,28.4131 -28.4131,68.31235 0,39.89924 28.4131,68.31234 28.4131,28.4131 68.31234,28.4131 z"
     id="path1"
     style="fill:#000000;stroke-width:1.20907" />
</svg>
