<?xml version="1.0" encoding="UTF-8" standalone="no"?>
<svg
   height="24px"
   viewBox="0 -960 960 960"
   width="24px"
   fill="#e3e3e3"
   version="1.1"
   id="svg1"
   sodipodi:docname="ic_menu_settings_search.svg"
   inkscape:version="1.4.2 (ebf0e940d0, 2025-05-08)"
   xmlns:inkscape="http://www.inkscape.org/namespaces/inkscape"
   xmlns:sodipodi="http://sodipodi.sourceforge.net/DTD/sodipodi-0.dtd"
   xmlns="http://www.w3.org/2000/svg"
   xmlns:svg="http://www.w3.org/2000/svg">
  <defs
     id="defs1" />
  <sodipodi:namedview
     id="namedview1"
     pagecolor="#ffffff"
     bordercolor="#000000"
     borderopacity="0.25"
     inkscape:showpageshadow="2"
     inkscape:pageopacity="0.0"
     inkscape:pagecheckerboard="0"
     inkscape:deskcolor="#d1d1d1"
     inkscape:zoom="38.166667"
     inkscape:cx="11.9869"
     inkscape:cy="12"
     inkscape:window-width="2021"
     inkscape:window-height="1167"
     inkscape:window-x="0"
     inkscape:window-y="0"
     inkscape:window-maximized="1"
     inkscape:current-layer="svg1" />
  <path
     d="M824-120 568-376q-12-13-25.5-26.5T516-428q38-24 61-64t23-88q0-75-52.5-127.5T420-760q-75 0-127.5 52.5T240-580q0 6 .5 11.5T242-557q-18 2-39.5 8T164-535q-2-11-3-22t-1-23q0-109 75.5-184.5T420-840q109 0 184.5 75.5T680-580q0 43-13.5 81.5T629-428l251 252-56 56ZM240-80l-12-60q-12-5-22.5-10.5T184-164l-58 18-40-68 46-40q-2-13-2-26t2-26l-46-40 40-68 58 18q11-8 21.5-13.5T228-420l12-60h80l12 60q12 5 22.5 10.5T376-396l58-18 40 68-46 40q2 13 2 26t-2 26l46 40-40 68-58-18q-11 8-21.5 13.5T332-140l-12 60h-80Zm40-120q33 0 56.5-23.5T360-280q0-33-23.5-56.5T280-360q-33 0-56.5 23.5T200-280q0 33 23.5 56.5T280-200Z"
     id="path1"
     style="fill:#000000" />
</svg>
