<?xml version="1.0" encoding="UTF-8" standalone="no"?>
<svg
   height="24px"
   viewBox="0 -960 960 960"
   width="24px"
   fill="#e3e3e3"
   version="1.1"
   id="svg1"
   sodipodi:docname="ic_sym_btn_right.svg"
   inkscape:version="1.4.2 (ebf0e940d0, 2025-05-08)"
   xmlns:inkscape="http://www.inkscape.org/namespaces/inkscape"
   xmlns:sodipodi="http://sodipodi.sourceforge.net/DTD/sodipodi-0.dtd"
   xmlns="http://www.w3.org/2000/svg"
   xmlns:svg="http://www.w3.org/2000/svg">
  <defs
     id="defs1" />
  <sodipodi:namedview
     id="namedview1"
     pagecolor="#ffffff"
     bordercolor="#000000"
     borderopacity="0.25"
     inkscape:showpageshadow="2"
     inkscape:pageopacity="0.0"
     inkscape:pagecheckerboard="0"
     inkscape:deskcolor="#d1d1d1"
     inkscape:zoom="7.1823019"
     inkscape:cx="-15.941964"
     inkscape:cy="29.099306"
     inkscape:window-width="2021"
     inkscape:window-height="1203"
     inkscape:window-x="0"
     inkscape:window-y="0"
     inkscape:window-maximized="1"
     inkscape:current-layer="svg1" />
  <path
     id="path1-0"
     style="fill:#000000;stroke-width:0.550125"
     d="m 548.08985,-409.66108 c -21.47129,21.55632 -43.03817,42.99545 -64.17198,64.88431 -21.30321,-21.71169 -42.82412,-43.24574 -64.38877,-64.69848 l -26.54218,26.57315 72.5961,72.62707 -0.031,85.69683 36.70066,-0.2168 v -85.48003 l 72.62707,-72.5961 z m -242.56511,0.18583 c -23.55668,0.0659 -41.90466,5.59955 -55.00455,16.60048 -13.17867,11.0672 -19.79049,23.50371 -19.79049,43.26652 0,15.81029 4.43885,20.12509 13.22464,30.59938 8.78577,10.27659 22.13661,13.23344 40.10748,16.19785 l 21.83457,3.49972 c 10.18352,1.5812 17.39362,4.26667 21.58681,8.0215 4.39294,3.75484 6.59682,2.66051 6.59684,9.97267 0,8.89322 -2.88131,10.52563 -8.6719,15.26873 -5.59099,4.74305 -13.69842,4.92438 -24.28129,4.92438 v 0.34069 H 230.7297 v 36.17416 h 74.02077 v -0.49553 c 14.76446,-0.52904 27.5989,-3.31594 38.34213,-8.4551 12.18029,-5.73116 21.23322,-13.61383 27.22354,-23.69283 6.19,-10.2766 9.2913,-14.58264 9.2913,-27.62617 0,-16.00794 -4.56598,-22.32847 -13.75114,-32.20987 -9.18511,-9.88147 -22.26775,-12.61402 -39.24029,-15.57842 l -21.89651,-3.80944 c -10.61786,-1.81802 -28.74111,-7.61269 -28.74111,-15.1758 0,-16.20961 9.85219,-21.45721 29.54635,-21.64875 h 73.9898 v -36.17417 z m 282.79648,0 -0.031,184.89705 36.70066,-0.2168 v -114.15922 l 37.59884,37.56787 38.40406,-38.37312 -0.031,115.18127 36.6697,-0.2168 v -184.68025 h -19.60467 l -55.43813,55.40717 -55.43815,-55.40717 z m -364.9936,151.41737 -0.9601,1.05301 c 0.30692,0.37818 0.6462,0.74254 0.9601,1.11495 z"
     sodipodi:nodetypes="cccccccccccssccccscccccccccssccsccccccccccccccccccccc" />
  <path
     d="m 549.90293,-615.0582 c -21.47129,-21.55632 -43.03604,-42.99545 -64.16985,-64.88431 -21.30321,21.71169 -42.82625,43.24574 -64.3909,64.69848 L 394.8,-641.81718 c 30.15926,-30.23288 60.1841,-60.59146 90.93308,-90.22282 30.88849,29.48163 60.762,60.00698 90.95975,90.19185 z"
     style="fill:#000000;stroke-width:0.550125"
     id="path1"
     sodipodi:nodetypes="ccccccc" />
  <path
     d="m 588.08,-445.97707 c 21.55632,-21.47129 42.99545,-43.03604 64.88431,-64.16985 -21.71169,-21.30321 -43.24574,-42.82625 -64.69848,-64.3909 L 614.83898,-601.08 c 30.23289,30.15927 60.59146,60.1841 90.22282,90.93308 -29.48163,30.88849 -60.00698,60.762 -90.19185,90.95975 z"
     style="fill:#000000;stroke-width:0.550125"
     id="path1-6"
     sodipodi:nodetypes="ccccccc" />
  <path
     d="m 380.8618,-574.4901 c -21.55632,21.47128 -42.99545,43.03603 -64.88431,64.16985 21.71169,21.30321 43.24574,42.82625 64.69848,64.39089 l -26.57315,26.54219 c -30.23288,-30.15926 -60.59146,-60.1841 -90.22282,-90.93308 29.48163,-30.8885 60.00698,-60.762 90.19186,-90.95975 z"
     style="fill:#000000;stroke-width:0.550125"
     id="path1-27"
     sodipodi:nodetypes="ccccccc" />
  <path
     d="m 792.48623,-720 167.51243,240 -167.51243,239.99996 -39.08623,-56 L 881.82619,-480 753.4,-664 Z"
     id="path1-2"
     style="fill:#000000;stroke-width:0.835446" />
</svg>
