<?xml version="1.0" encoding="UTF-8" standalone="no"?>
<svg
   height="24px"
   viewBox="0 -960 960 960"
   width="24px"
   fill="#e3e3e3"
   version="1.1"
   id="svg1"
   sodipodi:docname="ic_sym_btn_close.svg"
   inkscape:version="1.4.2 (ebf0e940d0, 2025-05-08)"
   xmlns:inkscape="http://www.inkscape.org/namespaces/inkscape"
   xmlns:sodipodi="http://sodipodi.sourceforge.net/DTD/sodipodi-0.dtd"
   xmlns="http://www.w3.org/2000/svg"
   xmlns:svg="http://www.w3.org/2000/svg">
  <defs
     id="defs1" />
  <sodipodi:namedview
     id="namedview1"
     pagecolor="#ffffff"
     bordercolor="#000000"
     borderopacity="0.25"
     inkscape:showpageshadow="2"
     inkscape:pageopacity="0.0"
     inkscape:pagecheckerboard="0"
     inkscape:deskcolor="#d1d1d1"
     inkscape:zoom="29.095963"
     inkscape:cx="14.486546"
     inkscape:cy="16.222182"
     inkscape:window-width="2021"
     inkscape:window-height="1203"
     inkscape:window-x="0"
     inkscape:window-y="0"
     inkscape:window-maximized="1"
     inkscape:current-layer="svg1" />
  <path
     id="path1-3"
     style="fill:#000000"
     d="M 112.03125 -847.96875 L 55 -791.01562 L 299.375 -546.64062 C 287.44722 -534.63251 275.59226 -522.55616 263.90625 -510.3125 C 293.53761 -479.56352 323.90774 -449.53426 354.14062 -419.375 L 380.70312 -445.9375 C 359.25039 -467.50214 337.72731 -489.00929 316.01562 -510.3125 C 319.35717 -513.53877 322.61491 -516.75551 325.9375 -520 L 326.01562 -520 L 492.42188 -353.59375 C 489.57384 -350.67357 486.73999 -347.70061 483.90625 -344.76562 C 462.60304 -366.47731 441.0959 -388.00039 419.53125 -409.45312 L 392.96875 -382.89062 L 465.54688 -310.3125 L 465.54688 -224.60938 L 502.26562 -224.76562 L 502.26562 -310.3125 L 518.98438 -327.03125 L 588.28125 -257.73438 L 588.28125 -224.60938 L 621.25 -224.76562 L 791.01562 -55 L 847.96875 -111.95312 L 847.96875 -112.03125 L 735.23438 -224.76562 L 700.9375 -259.0625 L 625 -335 L 588.35938 -371.64062 L 112.03125 -847.96875 z M 485.70312 -732.03125 C 461.30684 -708.52167 437.35207 -684.54903 413.4375 -660.54688 L 440.07812 -633.90625 C 455.35609 -649.17321 470.57836 -664.50709 485.70312 -679.92188 C 506.83695 -658.03301 528.45059 -636.63445 549.92188 -615.07812 L 576.71875 -641.875 C 546.521 -672.05987 516.59163 -702.54962 485.70312 -732.03125 z M 614.84375 -601.09375 L 588.28125 -574.53125 C 609.73399 -552.9666 631.25706 -531.45946 652.96875 -510.15625 C 637.85095 -495.55993 622.93348 -480.76356 608.04688 -465.9375 L 634.84375 -439.14062 C 658.45243 -462.6167 682.09368 -486.07499 705.07812 -510.15625 C 675.44678 -540.90523 645.07664 -570.93448 614.84375 -601.09375 z M 305.54688 -409.45312 C 281.99018 -409.38723 263.64677 -403.89157 250.54688 -392.89062 C 237.3682 -381.82342 230.70313 -369.37219 230.70312 -349.60938 C 230.70312 -333.79908 235.19859 -329.45866 243.98438 -318.98438 C 252.77015 -308.70779 266.09163 -305.77691 284.0625 -302.8125 L 305.85938 -299.29688 C 316.04289 -297.71568 323.30681 -295.08296 327.5 -291.32812 C 331.89294 -287.57328 334.06248 -288.6403 334.0625 -281.32812 C 334.0625 -272.43492 331.18122 -270.75874 325.39062 -266.01562 C 319.79964 -261.27257 311.67662 -261.09375 301.09375 -261.09375 L 301.09375 -260.78125 L 230.70312 -260.78125 L 230.70312 -224.60938 L 304.76562 -224.60938 L 304.76562 -225.07812 C 319.53008 -225.60717 332.38177 -228.45459 343.125 -233.59375 C 355.30529 -239.32491 364.32218 -247.18662 370.3125 -257.26562 C 376.5025 -267.54222 379.60938 -271.80022 379.60938 -284.84375 C 379.60938 -300.85169 375.04453 -307.22798 365.85938 -317.10938 C 356.67426 -326.99085 343.61318 -329.69185 326.64062 -332.65625 L 304.6875 -336.48438 C 294.06964 -338.30238 276.01562 -344.07752 276.01562 -351.64062 C 276.01562 -367.85023 285.85271 -373.08971 305.54688 -373.28125 L 379.53125 -373.28125 L 379.53125 -409.45312 L 305.54688 -409.45312 z M 718.04688 -409.45312 L 691.25 -382.73438 L 737.65625 -336.32812 L 737.65625 -409.45312 L 718.04688 -409.45312 z M 223.35938 -258.04688 L 222.34375 -257.03125 C 222.65067 -256.65307 223.04548 -256.23178 223.35938 -255.85938 L 223.35938 -258.04688 z " />
</svg>
