<?xml version="1.0" encoding="UTF-8" standalone="no"?>
<svg
   height="24px"
   viewBox="0 -960 960 960"
   width="24px"
   fill="#e3e3e3"
   version="1.1"
   id="svg1"
   sodipodi:docname="kbd_key.svg"
   inkscape:version="1.4 (e7c3feb100, 2024-10-09)"
   xmlns:inkscape="http://www.inkscape.org/namespaces/inkscape"
   xmlns:sodipodi="http://sodipodi.sourceforge.net/DTD/sodipodi-0.dtd"
   xmlns:xlink="http://www.w3.org/1999/xlink"
   xmlns="http://www.w3.org/2000/svg"
   xmlns:svg="http://www.w3.org/2000/svg">
  <defs
     id="defs1">
    <linearGradient
       inkscape:collect="always"
       xlink:href="#linearGradient5"
       id="linearGradient12"
       gradientUnits="userSpaceOnUse"
       gradientTransform="matrix(91.389362,0,0,91.389357,2336.4211,1958.7202)"
       x1="-24.214283"
       y1="-30.585888"
       x2="-16.412346"
       y2="-22.783947" />
    <linearGradient
       id="linearGradient5"
       inkscape:collect="always">
      <stop
         style="stop-color:#d5d5d5;stop-opacity:1;"
         offset="0.50119114"
         id="stop5" />
      <stop
         style="stop-color:#aeaeae;stop-opacity:1;"
         offset="0.50119114"
         id="stop6" />
    </linearGradient>
  </defs>
  <sodipodi:namedview
     id="namedview1"
     pagecolor="#ffffff"
     bordercolor="#000000"
     borderopacity="0.25"
     inkscape:showpageshadow="2"
     inkscape:pageopacity="0.0"
     inkscape:pagecheckerboard="0"
     inkscape:deskcolor="#d1d1d1"
     inkscape:zoom="9.3958333"
     inkscape:cx="0.15964523"
     inkscape:cy="22.137472"
     inkscape:window-width="1920"
     inkscape:window-height="1131"
     inkscape:window-x="0"
     inkscape:window-y="0"
     inkscape:window-maximized="1"
     inkscape:current-layer="svg1" />
  <path
     d="m 200,-120 c -22,0 -40.83333,-7.83333 -56.5,-23.5 C 127.83333,-159.16667 120,-178 120,-200 v -560 c 0,-22 7.83333,-40.83333 23.5,-56.5 15.66667,-15.66667 34.5,-23.5 56.5,-23.5 h 560 c 22,0 40.83333,7.83333 56.5,23.5 15.66667,15.66667 23.5,34.5 23.5,56.5 v 560 c 0,22 -7.83333,40.83333 -23.5,56.5 -15.66667,15.66667 -34.5,23.5 -56.5,23.5 z m 0,-80 H 760 V -760 H 200 Z m 0,-560 v 560 z"
     id="path1"
     style="fill:#1a1a1a"
     sodipodi:nodetypes="ssssssssssssscccccccc" />
  <rect
     style="display:inline;fill:#ffffff;fill-opacity:1;stroke:url(#linearGradient12);stroke-width:48.3662;stroke-linecap:round;stroke-linejoin:round;stroke-miterlimit:14;stroke-dasharray:none;stroke-opacity:1"
     id="rect5-3-0-6-2-8-3"
     width="911.63379"
     height="911.63373"
     x="24.183111"
     y="-935.81689"
     sodipodi:type="rect"
     ry="179.56422"
     inkscape:label="key_sym"
     rx="179.56422" />
</svg>
