<?xml version="1.0" encoding="UTF-8" standalone="no"?>
<svg
   height="24px"
   viewBox="0 -960 960 960"
   width="24px"
   fill="#e3e3e3"
   version="1.1"
   id="svg1"
   sodipodi:docname="meta.svg"
   inkscape:version="1.4 (e7c3feb100, 2024-10-09)"
   xmlns:inkscape="http://www.inkscape.org/namespaces/inkscape"
   xmlns:sodipodi="http://sodipodi.sourceforge.net/DTD/sodipodi-0.dtd"
   xmlns="http://www.w3.org/2000/svg"
   xmlns:svg="http://www.w3.org/2000/svg">
  <defs
     id="defs1" />
  <sodipodi:namedview
     id="namedview1"
     pagecolor="#ffffff"
     bordercolor="#000000"
     borderopacity="0.25"
     inkscape:showpageshadow="2"
     inkscape:pageopacity="0.0"
     inkscape:pagecheckerboard="0"
     inkscape:deskcolor="#d1d1d1"
     inkscape:zoom="37.583333"
     inkscape:cx="12.013304"
     inkscape:cy="12"
     inkscape:window-width="1920"
     inkscape:window-height="1131"
     inkscape:window-x="0"
     inkscape:window-y="0"
     inkscape:window-maximized="1"
     inkscape:current-layer="svg1" />
  <path
     id="path1"
     d="m 480,-880 c -55.33333,0 -107.34895,10.48438 -156.01562,31.48438 -48.66668,21 -90.95313,49.54687 -126.95313,85.54687 -36,36 -64.54687,78.28645 -85.54687,126.95313 C 90.484375,-587.34895 80,-535.33333 80,-480 c 0,55.33333 10.484375,107.34895 31.48438,156.01562 21,48.66667 49.54687,90.95313 85.54687,126.95313 36,36 78.28645,64.54687 126.95313,85.54687 C 372.65105,-90.484375 424.66667,-80 480,-80 c 55.33333,0 107.34896,-10.484375 156.01562,-31.48438 48.66667,-21 90.95313,-49.54687 126.95313,-85.54687 36,-36 64.54687,-78.28645 85.54687,-126.95313 C 869.51562,-372.65105 880,-424.66667 880,-480 c 0,-55.33333 -10.48438,-107.34896 -31.48438,-156.01562 -21,-48.66668 -49.54687,-90.95313 -85.54687,-126.95313 -36,-36 -78.28645,-64.54687 -126.95313,-85.54687 C 587.34896,-869.51562 535.33333,-880 480,-880 Z m 0,80 c 89.33333,0 165.03125,30.96875 227.03125,92.96875 62,62 92.96875,137.69792 92.96875,227.03125 0,89.33333 -30.96875,165.03125 -92.96875,227.03125 -62,62 -137.69792,92.96875 -227.03125,92.96875 -89.33333,0 -165.03125,-30.96875 -227.03125,-92.96875 C 190.96875,-314.96875 160,-390.66667 160,-480 c 0,-89.33333 30.96875,-165.03125 92.96875,-227.03125 62,-62 137.69792,-92.96875 227.03125,-92.96875 z"
     sodipodi:nodetypes="ssssssssssssssssssssssssss" />
</svg>
