<?xml version="1.0" encoding="UTF-8" standalone="no"?>
<svg
   id="vector"
   width="32"
   height="32"
   viewBox="0 0 32 32"
   version="1.1"
   sodipodi:docname="symshift4.svg"
   inkscape:version="1.4 (e7c3feb100, 2024-10-09)"
   xmlns:inkscape="http://www.inkscape.org/namespaces/inkscape"
   xmlns:sodipodi="http://sodipodi.sourceforge.net/DTD/sodipodi-0.dtd"
   xmlns="http://www.w3.org/2000/svg"
   xmlns:svg="http://www.w3.org/2000/svg">
  <defs
     id="defs1" />
  <sodipodi:namedview
     id="namedview1"
     pagecolor="#ffffff"
     bordercolor="#000000"
     borderopacity="0.25"
     inkscape:showpageshadow="2"
     inkscape:pageopacity="0.0"
     inkscape:pagecheckerboard="0"
     inkscape:deskcolor="#d1d1d1"
     showgrid="false"
     inkscape:zoom="13.983397"
     inkscape:cx="4.8271531"
     inkscape:cy="19.523153"
     inkscape:window-width="1920"
     inkscape:window-height="1131"
     inkscape:window-x="0"
     inkscape:window-y="0"
     inkscape:window-maximized="1"
     inkscape:current-layer="vector" />
  <path
     d="M 12.844777,11.78798 V 8.304373 H 8.9007501 L 16,-0.5040198 23.09925,8.304373 h -3.944029 v 3.483593 z m 1.314742,-1.315 3.680962,2.45e-4 V 6.9896303 h 2.47823 L 16,1.5600869 11.681289,6.9896303 h 2.47823 z"
     id="path1-5-1"
     style="stroke:#000000;stroke-width:1.25;stroke-dasharray:none;stroke-opacity:0.992478"
     sodipodi:nodetypes="cccccccccccccccc" />
  <path
     d="m 12.844777,20.212001 v 3.483607 H 8.9007501 L 16,32.504001 23.09925,23.695608 h -3.944029 v -3.483593 z m 1.314742,1.315 3.680962,-2.45e-4 v 3.483595 h 2.47823 L 16,30.439894 11.681289,25.010351 h 2.47823 z"
     id="path1-5-1-29"
     style="stroke:#000000;stroke-width:1.25;stroke-dasharray:none;stroke-opacity:0.992478"
     sodipodi:nodetypes="cccccccccccccccc" />
  <path
     d="M 11.78798,19.155214 H 8.304373 v 3.944027 L -0.50401981,15.999991 8.304373,8.9007407 V 12.84477 h 3.483593 z m -1.315,-1.314742 2.45e-4,-3.680962 H 6.9896303 v -2.47823 l -5.4295434,4.318711 5.4295434,4.318711 v -2.47823 z"
     id="path1-5-1-7"
     style="stroke:#000000;stroke-width:1.25;stroke-dasharray:none;stroke-opacity:0.992478"
     sodipodi:nodetypes="cccccccccccccccc" />
  <path
     d="m 20.212001,19.155214 h 3.483607 v 3.944027 l 8.808393,-7.09925 -8.808393,-7.0992503 V 12.84477 h -3.483593 z m 1.315,-1.314742 -2.45e-4,-3.680962 h 3.483595 v -2.47823 l 5.429543,4.318711 -5.429543,4.318711 v -2.47823 z"
     id="path1-5-1-29-0"
     style="stroke:#000000;stroke-width:1.25;stroke-dasharray:none;stroke-opacity:0.992478"
     sodipodi:nodetypes="cccccccccccccccc" />
</svg>
