<?xml version="1.0" encoding="UTF-8" standalone="no"?>
<svg
   width="32"
   height="32"
   version="1"
   id="svg35"
   sodipodi:docname="icon.svg"
   inkscape:version="1.4 (e7c3feb100, 2024-10-09)"
   inkscape:export-filename="/home/ricky/Code/android/symarrows.png"
   inkscape:export-xdpi="205.88"
   inkscape:export-ydpi="205.88"
   xmlns:inkscape="http://www.inkscape.org/namespaces/inkscape"
   xmlns:sodipodi="http://sodipodi.sourceforge.net/DTD/sodipodi-0.dtd"
   xmlns:xlink="http://www.w3.org/1999/xlink"
   xmlns="http://www.w3.org/2000/svg"
   xmlns:svg="http://www.w3.org/2000/svg"
   xmlns:rdf="http://www.w3.org/1999/02/22-rdf-syntax-ns#"
   xmlns:cc="http://creativecommons.org/ns#"
   xmlns:dc="http://purl.org/dc/elements/1.1/">
  <metadata
     id="metadata39">
    <rdf:RDF>
      <cc:Work
         rdf:about="">
        <dc:format>image/svg+xml</dc:format>
        <dc:type
           rdf:resource="http://purl.org/dc/dcmitype/StillImage" />
      </cc:Work>
    </rdf:RDF>
  </metadata>
  <sodipodi:namedview
     pagecolor="#ffffff"
     bordercolor="#666666"
     borderopacity="1"
     objecttolerance="10"
     gridtolerance="10"
     guidetolerance="10"
     inkscape:pageopacity="0"
     inkscape:pageshadow="2"
     inkscape:window-width="1347"
     inkscape:window-height="1201"
     id="namedview37"
     showgrid="false"
     inkscape:zoom="5.41047"
     inkscape:cx="37.427432"
     inkscape:cy="53.507366"
     inkscape:window-x="26"
     inkscape:window-y="23"
     inkscape:window-maximized="0"
     inkscape:current-layer="svg35"
     inkscape:showpageshadow="2"
     inkscape:pagecheckerboard="true"
     inkscape:deskcolor="#d1d1d1" />
  <defs
     id="defs7">
    <linearGradient
       id="linearGradient8505"
       x1="168"
       x2="160"
       y1="266"
       y2="270"
       gradientTransform="matrix(0.79874,0,0,0.79956,-95.82,-175.89)"
       gradientUnits="userSpaceOnUse">
      <stop
         offset="0"
         id="stop2" />
      <stop
         offset="1"
         stop-opacity="0"
         id="stop4" />
    </linearGradient>
    <linearGradient
       id="linearGradient8505-3"
       x1="168"
       x2="160"
       y1="266"
       y2="270"
       gradientTransform="matrix(0.70100521,0,0,0.70172487,-83.581087,-144.71721)"
       gradientUnits="userSpaceOnUse">
      <stop
         offset="0"
         id="stop2-6" />
      <stop
         offset="1"
         stop-opacity="0"
         id="stop4-7" />
    </linearGradient>
    <linearGradient
       id="linearGradient5"
       inkscape:collect="always">
      <stop
         style="stop-color:#d5d5d5;stop-opacity:1;"
         offset="0.50119114"
         id="stop5" />
      <stop
         style="stop-color:#aeaeae;stop-opacity:1;"
         offset="0.50119114"
         id="stop6" />
    </linearGradient>
    <linearGradient
       inkscape:collect="always"
       xlink:href="#linearGradient5"
       id="linearGradient2"
       gradientUnits="userSpaceOnUse"
       gradientTransform="matrix(2.2847496,0,0,2.2847496,58.410823,72.968471)"
       x1="-24.214283"
       y1="-30.585888"
       x2="-16.412346"
       y2="-22.783947" />
  </defs>
  <rect
     style="display:inline;fill:#ffffff;fill-opacity:1;stroke:url(#linearGradient2);stroke-width:1.209;stroke-linecap:round;stroke-linejoin:round;stroke-miterlimit:14;stroke-dasharray:none;stroke-opacity:1"
     id="rect5-3-3-9-5"
     width="22.791"
     height="22.791"
     x="0.60450053"
     y="0.60450053"
     sodipodi:type="rect"
     ry="4.4891362"
     inkscape:label="key_sym"
     rx="4.4891362" />
  <path
     id="path1-0"
     style="fill:#000000;stroke-width:0.0174849"
     d="m 12.147049,4.8298078 c -0.713046,0.6871283 -1.411184,1.3903944 -2.110558,2.0914691 l 0.616261,0.6162614 c 0.353728,-0.3518915 0.706812,-0.7035094 1.058005,-1.0580062 1.43e-4,0.6606062 0.002,1.5464999 0.0028,2.3259772 h 0.869855 c 2.95e-4,-0.7782548 6.75e-4,-1.6619488 0,-2.3232502 0.349749,0.3545699 0.701019,0.7050812 1.052554,1.0580062 l 0.62174,-0.6217151 C 13.557352,6.2185867 12.863337,5.5134643 12.147056,4.8298078 Z M 9.0930112,7.8620303 C 8.3930483,8.5622925 7.6879253,9.2563072 7.004268,9.972588 7.691394,10.685633 8.3946593,11.38105 9.0957367,12.08042 L 9.7120005,11.464159 C 9.35952,11.10984 9.00387,10.758085 8.6485395,10.406152 c 0.4769167,2.79e-4 1.3349415,-1.42e-4 2.0778375,0 V 9.5362972 c -0.7676115,-7.12e-5 -1.5951713,-2.295e-4 -2.0723835,0 0.3544785,-0.3495 0.707808,-0.7010182 1.060734,-1.0525529 z m 6.0480858,0.00548 -0.616262,0.6162592 c 0.34998,0.3518078 0.702492,0.7010985 1.05528,1.049826 -0.493114,2.1e-5 -1.301457,-7.5e-6 -2.069656,0 v 0.8725825 c 0.749317,-1.17e-4 1.584918,3.75e-4 2.077837,0 -0.357178,0.351365 -0.714069,0.701832 -1.068915,1.05528 l 0.621716,0.621714 C 15.841066,11.382904 16.54891,10.691618 17.232568,9.9753352 16.545439,9.26229 15.842177,8.5668735 15.141097,7.8675053 Z m -1.170969,4.8428317 c -0.621432,0.752386 -1.245294,1.499268 -1.856962,2.26326 -0.61657,-0.757808 -1.23828,-1.509035 -1.86242,-2.257806 l -0.7689625,0.927118 2.1023785,2.535942 -0.0028,2.991321 1.06346,-0.0083 V 16.17875 L 14.7472,13.645537 Z m -7.0188333,0.0055 C 6.2695039,12.718042 5.7379779,12.912687 5.3588323,13.296655 4.977408,13.682938 4.786201,14.1148 4.786201,14.804586 c 0,0.551831 0.127467,0.703325 0.3817556,1.068913 0.2542834,0.358686 0.6415,0.460984 1.1616243,0.564451 l 0.6326218,0.1227 c 0.294738,0.05519 0.5030797,0.149805 0.6244418,0.280863 0.127146,0.131055 0.1908773,0.09381 0.1908773,0.349032 0,0.310404 -0.08327,0.36618 -0.2508668,0.531731 -0.1618171,0.165549 -0.3972255,0.171789 -0.703521,0.17179 v 0.0108 H 4.786201 v 1.262517 h 2.1405522 v -0.01636 C 7.3540762,19.132553 7.7256315,19.035898 8.0365695,18.856527 8.3890988,18.65649 8.651244,18.38209 8.82462,18.030301 c 0.1791547,-0.358687 0.269955,-0.510033 0.2699565,-0.965295 0,-0.55873 -0.1322685,-0.778557 -0.3981172,-1.12345 C 8.430618,15.596672 8.0533335,15.499672 7.562103,15.396205 l -0.6353498,-0.13089 c -0.307308,-0.06345 -0.8316795,-0.267751 -0.8316795,-0.53173 0,-0.565768 0.2862209,-0.748644 0.856221,-0.755329 H 9.091848 v -1.262517 z m 8.1831853,0 v 6.454381 l 1.063461,-0.0083 v -3.983915 l 1.088001,1.3116 1.109816,-1.338867 v 4.019331 l 1.060731,-0.0083 v -6.446221 h -0.567177 l -1.60337,1.933316 -1.606098,-1.933316 z m -10.5636979,5.284574 -0.02727,0.03816 c 0.00889,0.0132 0.018177,0.02519 0.02727,0.03816 z"
     sodipodi:nodetypes="cccccccccccccccccccccccccccccccccccccccccccsccccscccccccccscccsccccccccccccccccccccc" />
</svg>
