<?xml version="1.0" encoding="UTF-8" standalone="no"?>
<svg
   width="32"
   height="32"
   version="1"
   id="svg35"
   sodipodi:docname="icon.svg"
   inkscape:version="1.4.2 (ebf0e940d0, 2025-05-08)"
   inkscape:export-filename="/home/ricky/Code/android/symarrows.png"
   inkscape:export-xdpi="205.88"
   inkscape:export-ydpi="205.88"
   xmlns:inkscape="http://www.inkscape.org/namespaces/inkscape"
   xmlns:sodipodi="http://sodipodi.sourceforge.net/DTD/sodipodi-0.dtd"
   xmlns:xlink="http://www.w3.org/1999/xlink"
   xmlns="http://www.w3.org/2000/svg"
   xmlns:svg="http://www.w3.org/2000/svg"
   xmlns:rdf="http://www.w3.org/1999/02/22-rdf-syntax-ns#"
   xmlns:cc="http://creativecommons.org/ns#"
   xmlns:dc="http://purl.org/dc/elements/1.1/">
  <metadata
     id="metadata39">
    <rdf:RDF>
      <cc:Work
         rdf:about="">
        <dc:format>image/svg+xml</dc:format>
        <dc:type
           rdf:resource="http://purl.org/dc/dcmitype/StillImage" />
      </cc:Work>
    </rdf:RDF>
  </metadata>
  <sodipodi:namedview
     pagecolor="#ffffff"
     bordercolor="#666666"
     borderopacity="1"
     objecttolerance="10"
     gridtolerance="10"
     guidetolerance="10"
     inkscape:pageopacity="0"
     inkscape:pageshadow="2"
     inkscape:window-width="2021"
     inkscape:window-height="1263"
     id="namedview37"
     showgrid="false"
     inkscape:zoom="5.41047"
     inkscape:cx="37.427432"
     inkscape:cy="53.59978"
     inkscape:window-x="0"
     inkscape:window-y="0"
     inkscape:window-maximized="0"
     inkscape:current-layer="svg35"
     inkscape:showpageshadow="2"
     inkscape:pagecheckerboard="true"
     inkscape:deskcolor="#d1d1d1" />
  <defs
     id="defs7">
    <linearGradient
       id="linearGradient8505"
       x1="168"
       x2="160"
       y1="266"
       y2="270"
       gradientTransform="matrix(0.79874,0,0,0.79956,-95.82,-175.89)"
       gradientUnits="userSpaceOnUse">
      <stop
         offset="0"
         id="stop2" />
      <stop
         offset="1"
         stop-opacity="0"
         id="stop4" />
    </linearGradient>
    <linearGradient
       id="linearGradient8505-3"
       x1="168"
       x2="160"
       y1="266"
       y2="270"
       gradientTransform="matrix(0.70100521,0,0,0.70172487,-83.581087,-144.71721)"
       gradientUnits="userSpaceOnUse">
      <stop
         offset="0"
         id="stop2-6" />
      <stop
         offset="1"
         stop-opacity="0"
         id="stop4-7" />
    </linearGradient>
    <linearGradient
       id="linearGradient5"
       inkscape:collect="always">
      <stop
         style="stop-color:#d5d5d5;stop-opacity:1;"
         offset="0.50119114"
         id="stop5" />
      <stop
         style="stop-color:#aeaeae;stop-opacity:1;"
         offset="0.50119114"
         id="stop6" />
    </linearGradient>
    <linearGradient
       inkscape:collect="always"
       xlink:href="#linearGradient5"
       id="linearGradient2"
       gradientUnits="userSpaceOnUse"
       gradientTransform="matrix(1.5231664,0,0,1.5231664,38.940549,48.645648)"
       x1="-24.214283"
       y1="-30.585888"
       x2="-16.412346"
       y2="-22.783947" />
  </defs>
  <rect
     style="display:inline;fill:#ffffff;fill-opacity:1;stroke:url(#linearGradient2);stroke-width:0.806;stroke-linecap:round;stroke-linejoin:round;stroke-miterlimit:14;stroke-dasharray:none;stroke-opacity:1"
     id="rect5-3-3-9-5"
     width="15.194"
     height="15.194"
     x="0.40300056"
     y="0.40300056"
     sodipodi:type="rect"
     ry="2.9927576"
     inkscape:label="key_sym"
     rx="2.9927576" />
  <path
     id="path1-0"
     style="fill:#000000;stroke-width:0.0116566"
     d="M 8.098033,3.2198722 C 7.6226689,3.6779577 7.1572439,4.1468018 6.6909944,4.6141849 L 7.1018349,5.025026 c 0.235819,-0.2345945 0.4712085,-0.4690064 0.705337,-0.7053376 9.5e-5,0.4404041 0.0013,1.0310001 0.00185,1.5506516 h 0.5799036 c 1.965e-4,-0.5188365 4.5e-4,-1.107966 0,-1.5488336 C 8.6220915,4.5578863 8.856271,4.7915605 9.090628,5.026844 L 9.5051208,4.6123671 C 9.0382355,4.1457248 8.5755585,3.6756432 8.098038,3.2198722 Z M 6.0620079,5.241354 C 5.5953658,5.7081955 5.1252838,6.1708721 4.6695123,6.6483926 5.1275963,7.1237561 5.5964398,7.5873671 6.0638249,8.0536141 l 0.4108425,-0.410841 c -0.234987,-0.2362125 -0.472087,-0.470716 -0.708974,-0.7053375 0.3179445,1.855e-4 0.889961,-9.5e-5 1.385225,0 V 6.3575321 c -0.511741,-4.75e-5 -1.0634475,-1.53e-4 -1.381589,0 0.236319,-0.233 0.471872,-0.4673456 0.707156,-0.7017021 z m 4.0320571,0.00365 -0.4108412,0.4108395 c 0.23332,0.2345385 0.4683282,0.4673991 0.7035202,0.6998841 -0.328743,1.4e-5 -0.8676382,-5e-6 -1.3797705,0 v 0.5817215 c 0.4995443,-7.8e-5 1.0566115,2.5e-4 1.3852245,0 -0.238119,0.2342435 -0.4760462,0.4678885 -0.7126102,0.7035205 l 0.4144772,0.414476 C 10.560711,7.5886031 11.032607,7.1277461 11.488379,6.6502241 11.030293,6.1748606 10.561452,5.7112495 10.094065,5.245004 Z M 9.3134195,8.4735582 C 8.899131,8.9751487 8.483223,9.4730702 8.0754445,9.9823985 7.6643979,9.4771932 7.2499244,8.9763752 6.8338309,8.4771942 l -0.5126415,0.618079 1.401586,1.6906278 -0.00185,1.994214 0.7089731,-0.0055 V 10.785834 L 9.8314838,9.0970247 Z m -4.6792227,0.00365 C 4.1796696,8.4786582 3.8253189,8.6084382 3.5725552,8.8644172 3.3182723,9.1219387 3.190801,9.4098467 3.190801,9.8697045 c 0,0.3678875 0.084978,0.4688835 0.2545037,0.7126085 0.1695223,0.239124 0.4276667,0.307323 0.7744162,0.376301 l 0.4217479,0.0818 c 0.196492,0.03679 0.3353865,0.09987 0.4162945,0.187242 0.084764,0.08737 0.1272515,0.06254 0.1272515,0.232688 0,0.206936 -0.055513,0.24412 -0.1672445,0.354487 -0.107878,0.110366 -0.264817,0.114526 -0.469014,0.114527 v 0.0072 H 3.190801 v 0.841678 h 1.4270348 v -0.01091 c 0.284882,-0.01231 0.5325855,-0.07675 0.7398775,-0.196331 0.2350195,-0.133358 0.4097831,-0.316291 0.5253671,-0.550817 0.1194365,-0.239125 0.17997,-0.340022 0.179971,-0.64353 0,-0.372487 -0.088179,-0.519038 -0.2654115,-0.748967 C 5.6204123,10.397782 5.3688893,10.333115 5.0414023,10.264137 l -0.4235665,-0.08726 c -0.204872,-0.0423 -0.554453,-0.1785005 -0.554453,-0.3544865 0,-0.3771788 0.1908139,-0.4990963 0.570814,-0.5035528 h 1.4270356 v -0.841678 z m 5.4554572,0 v 4.3029208 l 0.708974,-0.0055 v -2.655943 l 0.725334,0.8744 0.739877,-0.892578 v 2.679554 l 0.707154,-0.0055 V 8.4770812 H 12.592875 L 11.523962,9.7659585 10.45323,8.4770812 Z m -7.0424656,3.5230498 -0.01818,0.02544 c 0.00593,0.0088 0.012118,0.01679 0.01818,0.02544 z"
     sodipodi:nodetypes="cccccccccccccccccccccccccccccccccccccccccccsccccscccccccccscccsccccccccccccccccccccc" />
</svg>
